<svg id="svg" version="1.1" xmlns="http://www.w3.org/2000/svg" xmlns:xlink="http://www.w3.org/1999/xlink" width="400" height="400" viewBox="0, 0, 400,400"><g id="svgg"><path id="path0" d="M277.900 42.300 C 289.175 42.359,307.625 42.359,318.900 42.300 C 330.175 42.241,320.950 42.193,298.400 42.193 C 275.850 42.193,266.625 42.241,277.900 42.300 M340.242 42.900 C 340.473 43.564,338.205 43.600,296.243 43.600 C 252.267 43.600,252.000 43.605,252.000 44.400 C 252.000 45.048,251.733 45.200,250.600 45.200 C 249.622 45.200,249.200 45.381,249.200 45.800 C 249.200 46.253,248.711 46.400,247.200 46.400 C 245.467 46.400,245.200 46.507,245.200 47.200 C 245.200 47.733,244.933 48.000,244.400 48.000 C 243.941 48.000,243.600 48.267,243.600 48.625 C 243.600 48.981,243.298 49.220,242.900 49.179 C 241.220 49.008,240.529 49.222,241.500 49.612 C 243.086 50.250,242.483 50.800,240.200 50.800 C 238.511 50.800,238.000 50.939,238.000 51.400 C 238.000 51.733,237.644 52.000,237.200 52.000 C 236.667 52.000,236.400 52.267,236.400 52.800 C 236.400 53.244,236.133 53.600,235.800 53.600 C 235.467 53.600,235.200 53.956,235.200 54.400 C 235.200 54.933,234.933 55.200,234.400 55.200 C 233.956 55.200,233.600 55.467,233.600 55.800 C 233.600 56.219,233.178 56.400,232.200 56.400 C 230.867 56.400,230.800 56.467,230.800 57.800 C 230.800 58.819,230.625 59.200,230.157 59.200 C 229.750 59.200,229.599 58.980,229.745 58.600 C 229.871 58.270,229.801 58.000,229.587 58.000 C 229.374 58.000,229.200 58.630,229.200 59.400 C 229.200 60.378,229.019 60.800,228.600 60.800 C 228.270 60.800,228.000 61.070,228.000 61.400 C 228.000 61.733,227.644 62.000,227.200 62.000 C 226.667 62.000,226.400 62.267,226.400 62.800 C 226.400 63.244,226.133 63.600,225.800 63.600 C 225.467 63.600,225.200 63.956,225.200 64.400 C 225.200 64.933,224.933 65.200,224.400 65.200 C 223.696 65.200,223.600 65.467,223.600 67.414 C 223.600 69.504,223.555 69.604,222.800 69.200 C 222.061 68.805,222.000 68.896,222.000 70.386 C 222.000 71.554,221.834 72.000,221.400 72.000 C 220.939 72.000,220.800 72.511,220.800 74.200 C 220.800 76.133,220.703 76.400,220.000 76.400 C 219.234 76.400,218.838 79.542,219.179 82.900 C 219.220 83.298,218.981 83.600,218.625 83.600 C 218.070 83.600,218.000 85.191,218.000 97.800 L 218.000 112.000 235.800 112.000 L 253.600 112.000 253.600 100.000 C 253.600 89.600,253.680 88.000,254.200 88.000 C 254.662 88.000,254.800 87.484,254.800 85.753 C 254.800 83.704,254.870 83.525,255.600 83.716 C 256.299 83.899,256.400 83.728,256.400 82.363 C 256.400 80.728,257.359 80.103,257.724 81.500 C 257.825 81.885,257.928 81.525,257.954 80.700 C 257.986 79.654,258.182 79.200,258.600 79.200 C 258.930 79.200,259.200 78.930,259.200 78.600 C 259.200 78.155,259.692 77.992,261.100 77.968 C 262.145 77.951,262.775 77.846,262.500 77.735 C 260.729 77.020,262.169 76.400,265.600 76.400 C 268.933 76.400,269.200 76.341,269.200 75.600 C 269.200 75.067,269.467 74.800,270.000 74.800 C 270.533 74.800,270.800 75.067,270.800 75.600 C 270.800 76.393,271.067 76.400,303.600 76.400 C 332.489 76.400,336.400 76.472,336.400 77.000 C 336.400 77.745,334.161 77.833,333.865 77.100 C 333.744 76.801,333.650 76.882,333.632 77.300 C 333.605 77.886,333.959 78.000,335.800 78.000 C 337.489 78.000,338.000 78.139,338.000 78.600 C 338.000 78.930,338.270 79.200,338.600 79.200 C 338.933 79.200,339.200 79.556,339.200 80.000 C 339.200 80.533,339.467 80.800,340.000 80.800 C 340.444 80.800,340.800 81.067,340.800 81.400 C 340.800 81.730,341.070 82.000,341.400 82.000 C 341.831 82.000,342.015 82.480,342.054 83.700 C 342.084 84.635,342.187 84.995,342.282 84.500 C 342.378 84.005,342.713 83.600,343.028 83.600 C 343.520 83.600,343.600 88.990,343.600 122.200 C 343.600 155.561,343.522 160.800,343.023 160.800 C 342.635 160.800,342.396 160.244,342.293 159.100 C 342.160 157.626,342.130 157.705,342.070 159.700 C 342.017 161.447,341.856 162.000,341.400 162.000 C 341.067 162.000,340.800 162.356,340.800 162.800 C 340.800 163.333,340.533 163.600,340.000 163.600 C 339.467 163.600,339.200 163.867,339.200 164.400 C 339.200 165.048,338.933 165.200,337.800 165.200 C 336.822 165.200,336.400 165.381,336.400 165.800 C 336.400 166.130,336.130 166.400,335.800 166.400 C 335.467 166.400,335.200 166.756,335.200 167.200 C 335.200 167.867,334.933 168.000,333.600 168.000 L 332.000 168.000 332.000 160.800 C 332.000 154.667,331.911 153.600,331.400 153.600 C 330.945 153.600,330.800 153.106,330.800 151.557 C 330.800 149.906,330.915 149.559,331.400 149.745 C 331.730 149.871,332.000 149.801,332.000 149.587 C 332.000 149.374,331.730 149.200,331.400 149.200 C 330.947 149.200,330.800 148.711,330.800 147.200 C 330.800 145.467,330.693 145.200,330.000 145.200 C 329.467 145.200,329.200 144.933,329.200 144.400 C 329.200 143.930,328.933 143.600,328.553 143.600 C 328.104 143.600,327.970 143.356,328.116 142.800 C 328.282 142.164,328.128 142.000,327.363 142.000 C 326.529 142.000,326.400 141.812,326.400 140.600 C 326.400 139.467,326.248 139.200,325.600 139.200 C 325.156 139.200,324.800 138.933,324.800 138.600 C 324.800 138.270,324.530 138.000,324.200 138.000 C 323.678 138.000,323.370 136.968,323.564 135.866 C 323.596 135.682,323.258 135.436,322.811 135.319 C 322.359 135.200,322.000 134.774,322.000 134.353 C 322.000 133.939,321.730 133.600,321.400 133.600 C 321.067 133.600,320.800 133.244,320.800 132.800 C 320.800 132.267,320.533 132.000,320.000 132.000 C 319.556 132.000,319.200 131.733,319.200 131.400 C 319.200 131.070,318.930 130.800,318.600 130.800 C 318.267 130.800,318.000 130.444,318.000 130.000 C 318.000 129.467,317.733 129.200,317.200 129.200 C 316.756 129.200,316.400 128.933,316.400 128.600 C 316.400 128.181,315.978 128.000,315.000 128.000 C 313.867 128.000,313.600 127.848,313.600 127.200 C 313.600 126.667,313.333 126.400,312.800 126.400 C 312.356 126.400,312.000 126.133,312.000 125.800 C 312.000 125.470,311.730 125.200,311.400 125.200 C 311.067 125.200,310.800 124.844,310.800 124.400 C 310.800 123.758,310.533 123.600,309.447 123.600 C 308.430 123.600,308.041 123.401,307.884 122.800 C 307.769 122.360,307.442 122.000,307.157 122.000 C 306.755 122.000,306.747 122.107,307.120 122.480 C 307.925 123.285,307.666 123.600,306.200 123.600 C 304.600 123.600,304.209 122.570,305.700 122.282 C 306.257 122.175,306.029 122.088,305.100 122.054 C 304.058 122.017,303.600 121.817,303.600 121.400 C 303.600 120.939,303.089 120.800,301.400 120.800 C 299.467 120.800,299.200 120.703,299.200 120.000 C 299.200 119.297,298.933 119.200,297.000 119.200 C 295.311 119.200,294.800 119.061,294.800 118.600 C 294.800 118.073,291.689 118.000,269.200 118.000 C 243.867 118.000,243.600 117.992,243.600 117.200 C 243.600 116.414,243.333 116.400,228.600 116.400 C 215.533 116.400,213.600 116.323,213.600 115.800 C 213.600 115.470,213.285 115.214,212.900 115.232 C 212.482 115.250,212.401 115.344,212.700 115.465 C 213.396 115.746,213.327 116.400,212.600 116.400 C 212.147 116.400,212.000 115.911,212.000 114.400 C 212.000 112.889,211.853 112.400,211.400 112.400 C 210.879 112.400,210.537 110.867,210.753 109.500 C 210.779 109.335,210.665 109.221,210.500 109.247 C 208.849 109.508,206.400 109.121,206.400 108.600 C 206.400 108.075,203.911 108.000,186.400 108.000 C 168.889 108.000,166.400 108.075,166.400 108.600 C 166.400 109.019,165.978 109.200,165.000 109.200 C 163.867 109.200,163.600 109.352,163.600 110.000 C 163.600 110.533,163.333 110.800,162.800 110.800 C 162.356 110.800,162.000 111.067,162.000 111.400 C 162.000 111.730,161.730 112.000,161.400 112.000 C 160.967 112.000,160.800 112.444,160.800 113.600 C 160.800 114.933,160.667 115.200,160.000 115.200 C 159.211 115.200,159.200 115.467,159.200 134.400 C 159.200 153.333,159.211 153.600,160.000 153.600 C 160.648 153.600,160.800 153.867,160.800 155.000 C 160.800 155.949,160.985 156.400,161.373 156.400 C 161.688 156.400,162.060 156.760,162.200 157.200 C 162.340 157.640,162.712 158.000,163.027 158.000 C 163.342 158.000,163.600 158.270,163.600 158.600 C 163.600 159.019,164.022 159.200,165.000 159.200 C 166.133 159.200,166.400 159.352,166.400 160.000 C 166.400 160.789,166.667 160.800,186.400 160.800 C 206.133 160.800,206.400 160.789,206.400 160.000 C 206.400 159.352,206.667 159.200,207.800 159.200 C 208.778 159.200,209.200 159.019,209.200 158.600 C 209.200 158.220,209.603 157.988,210.300 157.968 C 210.905 157.951,211.175 157.846,210.900 157.735 C 210.097 157.411,210.325 156.400,211.200 156.400 C 211.903 156.400,212.000 156.133,212.000 154.200 C 212.000 152.267,212.097 152.000,212.800 152.000 C 213.244 152.000,213.600 151.733,213.600 151.400 C 213.600 150.871,218.067 150.800,251.400 150.800 L 289.200 150.800 289.246 152.100 C 289.272 152.815,289.375 153.085,289.476 152.700 C 289.576 152.315,289.915 152.000,290.229 152.000 C 290.932 152.000,290.988 153.057,290.300 153.335 C 290.025 153.446,290.295 153.551,290.900 153.568 C 291.597 153.588,292.000 153.820,292.000 154.200 C 292.000 154.533,292.356 154.800,292.800 154.800 C 293.333 154.800,293.600 155.067,293.600 155.600 C 293.600 156.133,293.867 156.400,294.400 156.400 C 294.844 156.400,295.200 156.667,295.200 157.000 C 295.200 157.330,295.470 157.600,295.800 157.600 C 296.326 157.600,296.400 160.267,296.400 179.200 L 296.400 200.800 319.200 200.800 C 341.733 200.800,342.000 200.791,342.000 200.000 C 342.000 199.297,342.267 199.200,344.200 199.200 C 345.889 199.200,346.400 199.061,346.400 198.600 C 346.400 198.126,347.010 197.990,349.300 197.954 C 350.895 197.928,351.885 197.825,351.500 197.724 C 349.893 197.304,350.781 196.400,352.800 196.400 C 354.533 196.400,354.800 196.293,354.800 195.600 C 354.800 195.067,355.067 194.800,355.600 194.800 C 356.044 194.800,356.400 194.533,356.400 194.200 C 356.400 193.475,357.451 193.397,357.735 194.100 C 357.846 194.375,357.951 194.015,357.968 193.300 C 357.998 192.087,358.094 192.000,359.400 192.000 C 360.378 192.000,360.800 191.819,360.800 191.400 C 360.800 190.981,361.222 190.800,362.200 190.800 C 363.333 190.800,363.600 190.648,363.600 190.000 C 363.600 189.467,363.867 189.200,364.400 189.200 C 364.844 189.200,365.200 188.933,365.200 188.600 C 365.200 188.270,365.470 188.000,365.800 188.000 C 366.133 188.000,366.400 187.644,366.400 187.200 C 366.400 186.667,366.667 186.400,367.200 186.400 C 367.733 186.400,368.000 186.133,368.000 185.600 C 368.000 185.156,368.267 184.800,368.600 184.800 C 368.930 184.800,369.200 184.530,369.200 184.200 C 369.200 183.867,369.556 183.600,370.000 183.600 C 370.648 183.600,370.800 183.333,370.800 182.200 C 370.800 181.222,370.981 180.800,371.400 180.800 C 371.819 180.800,372.000 180.378,372.000 179.400 C 372.000 178.094,372.087 177.998,373.300 177.968 C 374.015 177.951,374.375 177.846,374.100 177.735 C 373.384 177.446,373.481 176.400,374.224 176.400 C 374.593 176.400,374.731 176.588,374.562 176.862 C 374.385 177.148,374.452 177.215,374.738 177.038 C 374.992 176.881,375.200 176.313,375.200 175.776 C 375.200 175.175,375.431 174.800,375.800 174.800 C 376.286 174.800,376.400 174.156,376.400 171.400 C 376.400 167.964,377.302 166.384,377.713 169.100 C 377.805 169.705,377.907 168.355,377.940 166.100 C 377.989 162.749,378.110 162.000,378.600 162.000 C 379.129 162.000,379.200 157.289,379.200 122.000 C 379.200 87.084,379.125 82.000,378.612 82.000 C 378.134 82.000,378.004 81.096,377.912 77.133 C 377.822 73.222,377.682 72.229,377.200 72.083 C 376.716 71.935,376.696 72.002,377.100 72.430 C 377.818 73.191,377.746 75.200,377.000 75.200 C 376.539 75.200,376.400 74.689,376.400 73.000 C 376.400 71.311,376.261 70.800,375.800 70.800 C 375.470 70.800,375.200 70.508,375.200 70.151 C 375.200 69.620,375.309 69.592,375.800 70.000 C 376.291 70.408,376.400 70.380,376.400 69.849 C 376.400 69.492,376.130 69.200,375.800 69.200 C 375.470 69.200,375.200 68.930,375.200 68.600 C 375.200 68.267,374.844 68.000,374.400 68.000 C 373.752 68.000,373.600 67.733,373.600 66.600 C 373.600 65.467,373.448 65.200,372.800 65.200 C 372.133 65.200,372.000 64.933,372.000 63.600 C 372.000 62.444,371.833 62.000,371.400 62.000 C 371.070 62.000,370.800 61.730,370.800 61.400 C 370.800 61.067,370.444 60.800,370.000 60.800 C 369.467 60.800,369.200 60.533,369.200 60.000 C 369.200 59.556,368.933 59.200,368.600 59.200 C 368.270 59.200,368.000 58.930,368.000 58.600 C 368.000 58.267,367.644 58.000,367.200 58.000 C 366.667 58.000,366.400 57.733,366.400 57.200 C 366.400 56.756,366.133 56.400,365.800 56.400 C 365.470 56.400,365.200 56.130,365.200 55.800 C 365.200 55.467,364.844 55.200,364.400 55.200 C 363.867 55.200,363.600 54.933,363.600 54.400 C 363.600 53.867,363.333 53.600,362.800 53.600 C 362.267 53.600,362.000 53.333,362.000 52.800 C 362.000 52.152,361.733 52.000,360.600 52.000 C 359.622 52.000,359.200 51.819,359.200 51.400 C 359.200 50.820,358.560 50.631,357.100 50.779 C 356.690 50.821,356.400 50.580,356.400 50.198 C 356.400 49.714,356.631 49.611,357.300 49.799 C 358.005 49.997,358.070 49.961,357.600 49.632 C 357.270 49.401,356.505 49.209,355.900 49.206 C 355.192 49.202,354.800 48.986,354.800 48.600 C 354.800 48.147,354.311 48.000,352.800 48.000 C 351.230 48.000,350.800 47.862,350.800 47.357 C 350.800 46.950,351.020 46.799,351.400 46.945 C 351.730 47.071,352.000 47.001,352.000 46.787 C 352.000 46.574,351.370 46.400,350.600 46.400 C 349.622 46.400,349.200 46.219,349.200 45.800 C 349.200 45.339,348.689 45.200,347.000 45.200 C 345.067 45.200,344.800 45.103,344.800 44.400 C 344.800 43.715,344.533 43.600,342.944 43.600 C 341.651 43.600,340.923 43.388,340.543 42.900 C 340.024 42.233,340.010 42.233,340.242 42.900 M210.308 110.325 C 210.395 110.586,210.182 110.800,209.833 110.800 C 209.485 110.800,209.200 110.515,209.200 110.167 C 209.200 109.460,210.061 109.583,210.308 110.325 M56.400 195.800 C 56.400 196.276,55.822 196.400,53.600 196.400 C 51.067 196.400,50.800 196.476,50.800 197.200 C 50.800 197.848,50.533 198.000,49.400 198.000 C 48.422 198.000,48.000 198.181,48.000 198.600 C 48.000 199.061,47.489 199.200,45.800 199.200 C 43.867 199.200,43.600 199.297,43.600 200.000 C 43.600 200.533,43.333 200.800,42.800 200.800 C 42.356 200.800,42.000 201.067,42.000 201.400 C 42.000 201.831,41.560 202.000,40.437 202.000 C 39.072 202.000,38.901 202.101,39.084 202.800 C 39.273 203.523,39.096 203.600,37.247 203.600 C 36.121 203.600,35.200 203.774,35.200 203.987 C 35.200 204.201,35.470 204.271,35.800 204.145 C 36.180 203.999,36.400 204.150,36.400 204.557 C 36.400 204.911,36.130 205.200,35.800 205.200 C 35.470 205.200,35.200 205.470,35.200 205.800 C 35.200 206.133,34.844 206.400,34.400 206.400 C 33.867 206.400,33.600 206.667,33.600 207.200 C 33.600 207.848,33.333 208.000,32.200 208.000 C 31.222 208.000,30.800 208.181,30.800 208.600 C 30.800 208.933,30.444 209.200,30.000 209.200 C 29.467 209.200,29.200 209.467,29.200 210.000 C 29.200 210.444,28.933 210.800,28.600 210.800 C 28.270 210.800,28.000 211.070,28.000 211.400 C 28.000 211.733,27.644 212.000,27.200 212.000 C 26.533 212.000,26.400 212.267,26.400 213.600 C 26.400 214.756,26.233 215.200,25.800 215.200 C 25.470 215.200,25.200 215.470,25.200 215.800 C 25.200 216.130,24.911 216.400,24.557 216.400 C 24.150 216.400,23.999 216.180,24.145 215.800 C 24.271 215.470,24.201 215.200,23.987 215.200 C 23.774 215.200,23.600 216.100,23.600 217.200 C 23.600 219.315,22.633 220.122,22.282 218.300 C 22.187 217.805,22.084 218.165,22.054 219.100 C 22.015 220.320,21.831 220.800,21.400 220.800 C 20.981 220.800,20.800 221.222,20.800 222.200 C 20.800 223.333,20.648 223.600,20.000 223.600 C 19.352 223.600,19.200 223.867,19.200 225.000 C 19.200 225.978,19.019 226.400,18.600 226.400 C 18.181 226.400,18.000 226.822,18.000 227.800 C 18.000 228.730,17.813 229.200,17.443 229.200 C 16.423 229.200,16.400 230.225,16.400 275.633 C 16.400 320.533,16.405 320.800,17.200 320.800 C 17.866 320.800,18.000 321.067,18.000 322.387 C 18.000 323.634,18.129 323.925,18.600 323.745 C 19.065 323.566,19.200 323.839,19.200 324.957 C 19.200 326.133,19.348 326.400,20.000 326.400 C 20.648 326.400,20.800 326.667,20.800 327.800 C 20.800 328.778,20.981 329.200,21.400 329.200 C 21.831 329.200,22.000 329.640,22.000 330.763 C 22.000 332.128,22.101 332.299,22.800 332.116 C 23.491 331.935,23.600 332.104,23.600 333.353 C 23.600 334.533,23.747 334.800,24.400 334.800 C 24.933 334.800,25.200 335.067,25.200 335.600 C 25.200 336.382,25.727 336.583,27.330 336.416 C 27.821 336.364,28.036 336.579,27.984 337.070 C 27.829 338.555,28.015 339.200,28.600 339.200 C 29.019 339.200,29.200 339.622,29.200 340.600 C 29.200 341.370,29.374 342.000,29.587 342.000 C 29.801 342.000,29.871 341.730,29.745 341.400 C 29.599 341.020,29.750 340.800,30.157 340.800 C 30.511 340.800,30.800 341.070,30.800 341.400 C 30.800 341.730,31.070 342.000,31.400 342.000 C 31.733 342.000,32.000 342.356,32.000 342.800 C 32.000 343.584,32.678 343.806,34.500 343.621 C 34.898 343.580,35.200 343.819,35.200 344.175 C 35.200 344.519,35.470 344.800,35.800 344.800 C 36.637 344.800,36.554 345.901,35.700 346.124 C 35.315 346.225,35.675 346.328,36.500 346.354 C 37.718 346.391,38.000 346.550,38.000 347.200 C 38.000 347.848,38.267 348.000,39.400 348.000 C 40.378 348.000,40.800 348.181,40.800 348.600 C 40.800 349.019,41.222 349.200,42.200 349.200 C 43.219 349.200,43.600 349.375,43.600 349.843 C 43.600 350.259,43.382 350.402,42.979 350.247 C 42.623 350.111,42.463 350.178,42.603 350.405 C 42.737 350.622,44.277 350.800,46.024 350.800 C 48.580 350.800,49.200 350.917,49.200 351.400 C 49.200 351.819,49.622 352.000,50.600 352.000 C 51.733 352.000,52.000 352.152,52.000 352.800 C 52.000 353.541,52.267 353.600,55.600 353.600 C 58.533 353.600,59.200 353.711,59.200 354.200 C 59.200 354.729,63.756 354.800,97.800 354.800 C 131.844 354.800,136.400 354.729,136.400 354.200 C 136.400 353.724,136.978 353.600,139.200 353.600 C 141.733 353.600,142.000 353.524,142.000 352.800 C 142.000 352.152,142.267 352.000,143.400 352.000 C 144.378 352.000,144.800 351.819,144.800 351.400 C 144.800 350.920,145.400 350.800,147.800 350.800 C 150.533 350.800,150.800 350.729,150.800 350.000 C 150.800 349.352,151.067 349.200,152.200 349.200 C 153.125 349.200,153.600 349.012,153.600 348.647 C 153.600 348.342,153.960 347.999,154.400 347.884 C 154.840 347.769,155.200 347.388,155.200 347.037 C 155.200 346.687,155.470 346.400,155.800 346.400 C 156.133 346.400,156.400 346.044,156.400 345.600 C 156.400 345.156,156.667 344.800,157.000 344.800 C 157.725 344.800,157.803 345.851,157.100 346.135 C 156.812 346.251,156.908 346.350,157.329 346.368 C 157.847 346.391,158.036 346.140,157.984 345.500 C 157.840 343.721,157.969 343.537,159.300 343.610 C 161.635 343.738,162.000 343.628,162.000 342.800 C 162.000 342.267,162.267 342.000,162.800 342.000 C 163.577 342.000,163.781 341.477,163.621 339.900 C 163.540 339.104,164.628 338.938,164.935 339.700 C 165.046 339.975,165.151 339.705,165.168 339.100 C 165.196 338.144,165.362 338.000,166.437 338.000 C 167.338 338.000,167.732 337.783,167.884 337.200 C 167.999 336.760,168.342 336.400,168.647 336.400 C 169.012 336.400,169.200 335.925,169.200 335.000 C 169.200 333.867,169.352 333.600,170.000 333.600 C 170.648 333.600,170.800 333.333,170.800 332.200 C 170.800 331.222,170.981 330.800,171.400 330.800 C 171.819 330.800,172.000 330.378,172.000 329.400 C 172.000 328.267,172.152 328.000,172.800 328.000 C 173.467 328.000,173.600 327.733,173.600 326.400 C 173.600 325.067,173.733 324.800,174.400 324.800 C 175.048 324.800,175.200 324.533,175.200 323.400 C 175.200 322.422,175.381 322.000,175.800 322.000 C 176.325 322.000,176.400 319.689,176.400 303.600 L 176.400 285.200 159.200 285.200 L 142.000 285.200 142.000 298.000 C 142.000 309.111,141.921 310.800,141.400 310.800 C 140.981 310.800,140.800 311.222,140.800 312.200 C 140.800 313.333,140.648 313.600,140.000 313.600 C 139.242 313.600,138.970 314.356,139.170 315.900 C 139.211 316.218,138.720 316.400,137.818 316.400 C 136.461 316.400,136.400 316.461,136.400 317.818 C 136.400 318.720,136.218 319.211,135.900 319.170 C 134.356 318.970,133.600 319.242,133.600 320.000 C 133.600 320.648,133.333 320.800,132.200 320.800 C 131.067 320.800,130.800 320.952,130.800 321.600 C 130.800 322.468,130.214 322.670,129.772 321.955 C 129.621 321.711,129.746 321.353,130.049 321.161 C 130.485 320.885,130.454 320.811,129.900 320.806 C 129.515 320.803,129.200 321.070,129.200 321.400 C 129.200 321.928,125.289 322.000,96.400 322.000 C 67.511 322.000,63.600 321.928,63.600 321.400 C 63.600 320.981,63.178 320.800,62.200 320.800 C 61.067 320.800,60.800 320.648,60.800 320.000 C 60.800 319.352,60.533 319.200,59.400 319.200 C 58.290 319.200,58.000 319.042,58.000 318.437 C 58.000 317.880,57.791 317.729,57.226 317.877 C 56.577 318.047,56.457 317.877,56.487 316.834 C 56.506 316.149,56.405 315.471,56.261 315.328 C 56.117 315.184,56.000 315.367,56.000 315.733 C 56.000 316.100,55.730 316.400,55.400 316.400 C 55.070 316.400,54.800 316.130,54.800 315.800 C 54.800 315.470,54.530 315.200,54.200 315.200 C 53.867 315.200,53.600 314.844,53.600 314.400 C 53.600 313.867,53.333 313.600,52.800 313.600 C 52.097 313.600,52.000 313.333,52.000 311.400 C 52.000 309.711,51.861 309.200,51.400 309.200 C 50.875 309.200,50.800 306.867,50.800 290.600 C 50.800 274.333,50.875 272.000,51.400 272.000 C 51.924 272.000,52.000 269.844,52.000 255.000 C 52.000 238.267,52.013 238.000,52.800 238.000 C 53.307 238.000,53.588 237.744,53.568 237.300 C 53.550 236.882,53.456 236.801,53.335 237.100 C 53.051 237.803,52.000 237.725,52.000 237.000 C 52.000 236.581,52.422 236.400,53.400 236.400 C 54.733 236.400,54.800 236.333,54.800 235.000 C 54.800 233.867,54.952 233.600,55.600 233.600 C 56.117 233.600,56.400 233.333,56.400 232.847 C 56.400 232.418,56.762 231.999,57.240 231.874 C 57.703 231.753,57.962 231.462,57.817 231.227 C 57.642 230.944,58.299 230.800,59.765 230.800 L 61.977 230.800 62.101 236.100 L 62.225 241.400 62.313 235.300 C 62.386 230.183,62.497 229.200,63.000 229.200 C 63.516 229.200,63.600 230.511,63.600 238.600 C 63.600 247.733,63.623 248.000,64.400 248.000 C 65.048 248.000,65.200 248.267,65.200 249.400 C 65.200 250.378,65.381 250.800,65.800 250.800 C 66.219 250.800,66.400 251.222,66.400 252.200 C 66.400 253.333,66.552 253.600,67.200 253.600 C 67.644 253.600,68.000 253.867,68.000 254.200 C 68.000 254.530,68.270 254.800,68.600 254.800 C 69.031 254.800,69.200 255.240,69.200 256.363 C 69.200 257.728,69.301 257.899,70.000 257.716 C 70.704 257.532,70.800 257.704,70.800 259.153 C 70.800 260.350,70.964 260.800,71.400 260.800 C 71.730 260.800,72.000 261.070,72.000 261.400 C 72.000 261.733,72.356 262.000,72.800 262.000 C 73.333 262.000,73.600 262.267,73.600 262.800 C 73.600 263.333,73.867 263.600,74.400 263.600 C 74.844 263.600,75.200 263.867,75.200 264.200 C 75.200 264.530,75.470 264.800,75.800 264.800 C 76.133 264.800,76.400 265.156,76.400 265.600 C 76.400 266.133,76.667 266.400,77.200 266.400 C 77.733 266.400,78.000 266.667,78.000 267.200 C 78.000 267.644,78.267 268.000,78.600 268.000 C 78.930 268.000,79.200 268.270,79.200 268.600 C 79.200 268.933,79.556 269.200,80.000 269.200 C 80.547 269.200,80.800 269.467,80.800 270.044 C 80.800 270.773,80.991 270.865,82.200 270.724 C 83.342 270.591,83.600 270.693,83.600 271.280 C 83.600 271.836,83.919 272.000,85.000 272.000 C 86.133 272.000,86.400 272.152,86.400 272.800 C 86.400 273.448,86.667 273.600,87.800 273.600 C 88.778 273.600,89.200 273.781,89.200 274.200 C 89.200 274.533,89.556 274.800,90.000 274.800 C 90.533 274.800,90.800 275.067,90.800 275.600 C 90.800 276.341,91.067 276.400,94.400 276.400 C 97.462 276.400,98.000 276.498,98.000 277.052 C 98.000 277.574,97.721 277.659,96.600 277.477 C 95.830 277.353,95.200 277.419,95.200 277.625 C 95.200 277.834,97.055 278.000,99.400 278.000 C 102.867 278.000,103.600 278.105,103.600 278.600 C 103.600 279.129,108.222 279.200,142.800 279.200 L 182.000 279.200 182.054 280.900 C 182.084 281.835,182.187 282.195,182.282 281.700 C 182.633 279.878,183.600 280.685,183.600 282.800 C 183.600 284.533,183.707 284.800,184.400 284.800 C 184.933 284.800,185.200 285.067,185.200 285.600 C 185.200 286.044,185.467 286.400,185.800 286.400 C 186.133 286.400,186.400 286.756,186.400 287.200 C 186.400 287.733,186.667 288.000,187.200 288.000 C 187.644 288.000,188.000 288.267,188.000 288.600 C 188.000 288.930,188.270 289.200,188.600 289.200 C 189.137 289.200,189.374 289.667,189.252 290.485 C 189.229 290.642,197.938 290.781,208.605 290.792 C 227.797 290.814,228.000 290.806,228.000 290.007 C 228.000 289.351,228.263 289.200,229.400 289.200 C 230.378 289.200,230.800 289.019,230.800 288.600 C 230.800 288.270,231.070 288.000,231.400 288.000 C 231.733 288.000,232.000 287.644,232.000 287.200 C 232.000 286.667,232.267 286.400,232.800 286.400 C 233.333 286.400,233.600 286.133,233.600 285.600 C 233.600 285.156,233.867 284.800,234.200 284.800 C 234.530 284.800,234.800 284.530,234.800 284.200 C 234.800 283.867,235.156 283.600,235.600 283.600 C 236.389 283.600,236.400 283.333,236.400 263.600 C 236.400 243.664,236.397 243.600,235.575 243.600 C 235.029 243.600,234.774 243.363,234.821 242.900 C 234.969 241.440,234.780 240.800,234.200 240.800 C 233.867 240.800,233.600 240.444,233.600 240.000 C 233.600 239.467,233.333 239.200,232.800 239.200 C 232.356 239.200,232.000 238.933,232.000 238.600 C 232.000 238.270,231.730 238.000,231.400 238.000 C 231.070 238.000,230.800 237.711,230.800 237.357 C 230.800 236.950,231.020 236.799,231.400 236.945 C 231.730 237.071,232.000 237.001,232.000 236.787 C 232.000 236.574,231.100 236.400,230.000 236.400 C 228.489 236.400,228.000 236.253,228.000 235.800 C 228.000 235.470,227.801 235.200,227.557 235.200 C 227.314 235.200,227.218 235.470,227.345 235.800 C 227.556 236.350,196.969 236.866,189.700 236.435 C 188.212 236.347,188.000 236.438,188.000 237.167 C 188.000 237.733,187.744 238.000,187.200 238.000 C 186.756 238.000,186.400 238.267,186.400 238.600 C 186.400 238.930,186.130 239.200,185.800 239.200 C 185.467 239.200,185.200 239.556,185.200 240.000 C 185.200 240.533,184.933 240.800,184.400 240.800 C 183.676 240.800,183.600 241.067,183.600 243.600 C 183.600 246.764,182.591 247.767,182.291 244.900 L 182.134 243.400 182.067 244.900 L 182.000 246.400 145.600 246.400 C 113.511 246.400,109.200 246.329,109.200 245.800 C 109.200 245.381,108.778 245.200,107.800 245.200 C 106.667 245.200,106.400 245.048,106.400 244.400 C 106.400 243.730,106.133 243.600,104.757 243.600 C 103.419 243.600,103.160 243.482,103.359 242.963 C 103.522 242.538,103.336 242.256,102.802 242.116 C 102.361 242.001,102.000 241.658,102.000 241.353 C 102.000 241.049,101.730 240.800,101.400 240.800 C 101.067 240.800,100.800 240.444,100.800 240.000 C 100.800 239.467,100.533 239.200,100.000 239.200 C 99.352 239.200,99.200 238.933,99.200 237.800 C 99.200 236.822,99.019 236.400,98.600 236.400 C 98.074 236.400,98.000 233.844,98.000 215.800 C 98.000 201.006,97.875 195.200,97.557 195.200 C 97.314 195.200,97.218 195.470,97.345 195.800 C 97.547 196.328,95.145 196.400,77.187 196.400 C 58.730 196.400,55.374 196.242,57.300 195.465 C 57.599 195.344,57.518 195.250,57.100 195.232 C 56.715 195.214,56.400 195.470,56.400 195.800 M18.000 230.200 C 18.000 230.530,17.730 230.800,17.400 230.800 C 16.775 230.800,16.606 230.327,17.067 229.867 C 17.527 229.406,18.000 229.575,18.000 230.200 M177.503 296.500 C 177.559 302.715,177.656 309.600,177.718 311.800 C 177.780 314.000,177.869 308.915,177.916 300.500 C 177.962 292.085,177.865 285.200,177.700 285.200 C 177.535 285.200,177.446 290.285,177.503 296.500 M190.800 289.833 C 190.800 290.540,189.939 290.417,189.692 289.675 C 189.605 289.414,189.818 289.200,190.167 289.200 C 190.515 289.200,190.800 289.485,190.800 289.833 M167.508 336.875 C 167.261 337.617,166.400 337.740,166.400 337.033 C 166.400 336.685,166.685 336.400,167.033 336.400 C 167.382 336.400,167.595 336.614,167.508 336.875 " stroke="none" fill="#000000" fill-rule="evenodd"></path><path id="path1" d="M70.800 15.800 C 70.800 16.219,70.378 16.400,69.400 16.400 C 68.267 16.400,68.000 16.552,68.000 17.200 C 68.000 17.848,67.733 18.000,66.600 18.000 C 65.622 18.000,65.200 18.181,65.200 18.600 C 65.200 18.933,64.844 19.200,64.400 19.200 C 63.867 19.200,63.600 19.467,63.600 20.000 C 63.600 20.533,63.333 20.800,62.800 20.800 C 62.356 20.800,62.000 21.067,62.000 21.400 C 62.000 21.804,61.596 22.000,60.763 22.000 C 59.862 22.000,59.468 22.217,59.316 22.800 C 59.159 23.401,58.770 23.600,57.753 23.600 C 56.667 23.600,56.400 23.758,56.400 24.400 C 56.400 24.844,56.133 25.200,55.800 25.200 C 55.381 25.200,55.200 25.622,55.200 26.600 C 55.200 27.733,55.048 28.000,54.400 28.000 C 53.956 28.000,53.600 28.267,53.600 28.600 C 53.600 28.933,53.244 29.200,52.800 29.200 C 52.267 29.200,52.000 29.467,52.000 30.000 C 52.000 30.444,51.733 30.800,51.400 30.800 C 51.070 30.800,50.800 31.049,50.800 31.353 C 50.800 31.658,50.440 32.001,50.000 32.116 C 49.387 32.276,49.200 32.662,49.200 33.763 C 49.200 34.774,49.022 35.200,48.600 35.200 C 48.270 35.200,48.000 35.470,48.000 35.800 C 48.000 36.133,47.644 36.400,47.200 36.400 C 46.552 36.400,46.400 36.667,46.400 37.800 C 46.400 38.778,46.219 39.200,45.800 39.200 C 45.381 39.200,45.200 39.622,45.200 40.600 C 45.200 41.733,45.048 42.000,44.400 42.000 C 43.733 42.000,43.600 42.267,43.600 43.600 C 43.600 44.933,43.467 45.200,42.800 45.200 C 42.051 45.200,42.000 45.467,42.000 49.400 C 42.000 52.867,41.895 53.600,41.400 53.600 C 40.871 53.600,40.800 58.467,40.800 95.000 C 40.800 131.533,40.871 136.400,41.400 136.400 C 41.895 136.400,42.000 137.133,42.000 140.600 C 42.000 144.533,42.051 144.800,42.800 144.800 C 43.467 144.800,43.600 145.067,43.600 146.400 C 43.600 147.733,43.733 148.000,44.400 148.000 C 45.048 148.000,45.200 148.267,45.200 149.400 C 45.200 150.733,45.267 150.800,46.600 150.800 C 47.933 150.800,48.000 150.867,48.000 152.200 C 48.000 153.155,48.184 153.600,48.579 153.600 C 48.996 153.600,49.192 154.189,49.279 155.700 C 49.397 157.748,49.432 157.803,50.700 157.925 C 51.505 158.003,52.000 158.269,52.000 158.625 C 52.000 158.941,52.360 159.200,52.800 159.200 C 53.333 159.200,53.600 159.467,53.600 160.000 C 53.600 160.533,53.867 160.800,54.400 160.800 C 55.048 160.800,55.200 161.067,55.200 162.200 C 55.200 163.178,55.381 163.600,55.800 163.600 C 56.130 163.600,56.400 163.870,56.400 164.200 C 56.400 164.619,56.822 164.800,57.800 164.800 C 58.933 164.800,59.200 164.952,59.200 165.600 C 59.200 166.133,59.467 166.400,60.000 166.400 C 60.533 166.400,60.800 166.667,60.800 167.200 C 60.800 167.644,61.067 168.000,61.400 168.000 C 61.730 168.000,62.000 168.270,62.000 168.600 C 62.000 168.933,62.356 169.200,62.800 169.200 C 63.333 169.200,63.600 169.467,63.600 170.000 C 63.600 170.648,63.867 170.800,65.000 170.800 C 65.978 170.800,66.400 170.981,66.400 171.400 C 66.400 171.876,66.978 172.000,69.200 172.000 C 71.733 172.000,72.000 172.076,72.000 172.800 C 72.000 173.529,72.267 173.600,75.000 173.600 C 77.400 173.600,78.000 173.720,78.000 174.200 C 78.000 174.724,80.089 174.800,94.400 174.800 L 110.800 174.800 110.800 157.000 L 110.800 139.200 97.800 139.200 C 86.511 139.200,84.800 139.121,84.800 138.600 C 84.800 138.147,84.311 138.000,82.800 138.000 C 81.067 138.000,80.800 137.893,80.800 137.200 C 80.800 136.667,80.533 136.400,80.000 136.400 C 79.556 136.400,79.200 136.133,79.200 135.800 C 79.200 135.470,78.930 135.200,78.600 135.200 C 78.267 135.200,78.000 134.844,78.000 134.400 C 78.000 133.867,77.733 133.600,77.200 133.600 C 76.667 133.600,76.400 133.333,76.400 132.800 C 76.400 132.267,76.133 132.000,75.600 132.000 C 74.952 132.000,74.800 131.733,74.800 130.600 C 74.800 129.622,74.619 129.200,74.200 129.200 C 73.671 129.200,73.600 125.044,73.600 94.200 C 73.600 63.356,73.671 59.200,74.200 59.200 C 74.530 59.200,74.800 58.930,74.800 58.600 C 74.800 58.267,75.156 58.000,75.600 58.000 C 76.267 58.000,76.400 57.733,76.400 56.400 C 76.400 55.067,76.533 54.800,77.200 54.800 C 77.848 54.800,78.000 54.533,78.000 53.400 L 78.000 52.000 80.000 52.000 C 81.511 52.000,82.000 51.853,82.000 51.400 C 82.000 50.871,86.400 50.800,119.200 50.800 C 152.000 50.800,156.400 50.871,156.400 51.400 C 156.400 51.861,156.911 52.000,158.600 52.000 C 160.533 52.000,160.800 52.097,160.800 52.800 C 160.800 53.244,161.067 53.600,161.400 53.600 C 161.819 53.600,162.000 54.022,162.000 55.000 C 162.000 56.133,162.152 56.400,162.800 56.400 C 163.333 56.400,163.600 56.667,163.600 57.200 C 163.600 57.733,163.867 58.000,164.400 58.000 C 165.048 58.000,165.200 58.267,165.200 59.400 L 165.200 60.800 158.600 60.800 C 153.000 60.800,152.000 60.891,152.000 61.400 C 152.000 61.895,151.267 62.000,147.800 62.000 C 143.867 62.000,143.600 62.051,143.600 62.800 C 143.600 63.333,143.333 63.600,142.800 63.600 C 142.267 63.600,142.000 63.867,142.000 64.400 C 142.000 65.048,141.733 65.200,140.600 65.200 C 139.622 65.200,139.200 65.381,139.200 65.800 C 139.200 66.130,138.930 66.400,138.600 66.400 C 138.267 66.400,138.000 66.756,138.000 67.200 C 138.000 67.848,137.733 68.000,136.600 68.000 C 135.622 68.000,135.200 68.181,135.200 68.600 C 135.200 68.933,134.844 69.200,134.400 69.200 C 133.867 69.200,133.600 69.467,133.600 70.000 C 133.600 70.533,133.333 70.800,132.800 70.800 C 132.360 70.800,132.000 71.059,132.000 71.375 C 132.000 71.731,131.505 71.997,130.700 72.075 C 129.513 72.189,129.389 72.331,129.276 73.700 C 129.195 74.681,128.953 75.200,128.576 75.200 C 128.259 75.200,128.000 75.470,128.000 75.800 C 128.000 76.133,127.644 76.400,127.200 76.400 C 126.667 76.400,126.400 76.667,126.400 77.200 C 126.400 77.644,126.133 78.000,125.800 78.000 C 125.470 78.000,125.200 78.270,125.200 78.600 C 125.200 78.933,124.844 79.200,124.400 79.200 C 123.758 79.200,123.600 79.467,123.600 80.553 C 123.600 81.570,123.401 81.959,122.800 82.116 C 122.187 82.276,122.000 82.662,122.000 83.763 C 122.000 84.774,121.822 85.200,121.400 85.200 C 120.981 85.200,120.800 85.622,120.800 86.600 C 120.800 87.733,120.648 88.000,120.000 88.000 C 119.352 88.000,119.200 88.267,119.200 89.400 C 119.200 90.378,119.019 90.800,118.600 90.800 C 118.139 90.800,118.000 91.311,118.000 93.000 C 118.000 94.933,117.903 95.200,117.200 95.200 C 116.507 95.200,116.400 95.467,116.400 97.200 C 116.400 98.711,116.253 99.200,115.800 99.200 C 115.271 99.200,115.200 104.000,115.200 140.000 L 115.200 180.800 113.000 180.800 C 111.311 180.800,110.800 180.939,110.800 181.400 C 110.800 181.819,110.378 182.000,109.400 182.000 C 108.033 182.000,108.000 182.038,108.000 183.600 C 108.000 184.933,107.867 185.200,107.200 185.200 C 106.756 185.200,106.400 185.467,106.400 185.800 C 106.400 186.130,106.130 186.400,105.800 186.400 C 105.275 186.400,105.200 188.889,105.200 206.400 C 105.200 223.911,105.275 226.400,105.800 226.400 C 106.219 226.400,106.400 226.822,106.400 227.800 C 106.400 228.933,106.552 229.200,107.200 229.200 C 107.733 229.200,108.000 229.467,108.000 230.000 C 108.000 230.444,108.267 230.800,108.600 230.800 C 108.930 230.800,109.200 231.070,109.200 231.400 C 109.200 231.733,109.556 232.000,110.000 232.000 C 110.533 232.000,110.800 232.267,110.800 232.800 C 110.800 233.590,111.067 233.600,131.400 233.600 C 151.733 233.600,152.000 233.590,152.000 232.800 C 152.000 232.097,152.267 232.000,154.200 232.000 C 155.806 232.000,156.400 231.851,156.400 231.447 C 156.400 231.142,156.760 230.799,157.200 230.684 C 157.905 230.500,158.000 230.138,158.000 227.637 C 158.000 225.382,158.123 224.800,158.600 224.800 C 159.124 224.800,159.200 222.556,159.200 207.000 C 159.200 191.444,159.124 189.200,158.600 189.200 C 158.124 189.200,158.000 188.622,158.000 186.400 C 158.000 183.867,157.924 183.600,157.200 183.600 C 156.667 183.600,156.400 183.333,156.400 182.800 C 156.400 182.097,156.133 182.000,154.200 182.000 C 152.511 182.000,152.000 181.861,152.000 181.400 C 152.000 180.947,151.511 180.800,150.000 180.800 L 148.000 180.800 148.000 165.000 C 148.000 151.222,148.077 149.200,148.600 149.200 C 149.126 149.200,149.200 146.467,149.200 127.000 C 149.200 105.067,149.210 104.800,150.000 104.800 C 150.648 104.800,150.800 104.533,150.800 103.400 C 150.800 102.422,150.981 102.000,151.400 102.000 C 151.730 102.000,152.000 101.730,152.000 101.400 C 152.000 101.067,152.356 100.800,152.800 100.800 C 153.333 100.800,153.600 100.533,153.600 100.000 C 153.600 99.467,153.867 99.200,154.400 99.200 C 154.844 99.200,155.200 98.933,155.200 98.600 C 155.200 98.196,155.604 98.000,156.437 98.000 C 157.338 98.000,157.732 97.783,157.884 97.200 C 158.090 96.413,158.430 96.400,178.647 96.400 L 199.200 96.400 199.200 77.200 C 199.200 60.400,199.125 58.000,198.600 58.000 C 198.094 58.000,198.000 57.089,198.000 52.200 C 198.000 46.667,197.963 46.400,197.200 46.400 C 196.497 46.400,196.400 46.133,196.400 44.200 C 196.400 42.511,196.261 42.000,195.800 42.000 C 195.470 42.000,195.200 41.730,195.200 41.400 C 195.200 41.067,194.844 40.800,194.400 40.800 C 193.752 40.800,193.600 40.533,193.600 39.400 C 193.600 38.267,193.448 38.000,192.800 38.000 C 192.152 38.000,192.000 37.733,192.000 36.600 C 192.000 35.622,191.819 35.200,191.400 35.200 C 190.967 35.200,190.800 34.756,190.800 33.600 C 190.800 32.267,190.667 32.000,190.000 32.000 C 189.556 32.000,189.200 31.733,189.200 31.400 C 189.200 31.070,188.951 30.800,188.647 30.800 C 188.342 30.800,187.999 30.440,187.884 30.000 C 187.732 29.417,187.338 29.200,186.437 29.200 C 185.321 29.200,185.200 29.079,185.200 27.963 C 185.200 27.062,184.983 26.668,184.400 26.516 C 183.960 26.401,183.600 26.058,183.600 25.753 C 183.600 25.449,183.240 25.200,182.800 25.200 C 182.267 25.200,182.000 24.933,182.000 24.400 C 182.000 23.960,181.751 23.600,181.447 23.600 C 181.142 23.600,180.799 23.240,180.684 22.800 C 180.532 22.217,180.138 22.000,179.237 22.000 C 178.404 22.000,178.000 21.804,178.000 21.400 C 178.000 21.067,177.644 20.800,177.200 20.800 C 176.667 20.800,176.400 20.533,176.400 20.000 C 176.400 19.352,176.133 19.200,175.000 19.200 C 174.022 19.200,173.600 19.019,173.600 18.600 C 173.600 18.267,173.244 18.000,172.800 18.000 C 172.267 18.000,172.000 17.733,172.000 17.200 C 172.000 16.552,171.733 16.400,170.600 16.400 C 169.622 16.400,169.200 16.219,169.200 15.800 C 169.200 15.270,163.467 15.200,120.000 15.200 C 76.533 15.200,70.800 15.270,70.800 15.800 M257.062 42.500 C 257.164 42.665,257.057 42.800,256.824 42.800 C 256.591 42.800,256.400 42.980,256.400 43.200 C 256.400 43.464,270.667 43.600,298.400 43.600 C 326.133 43.600,340.400 43.464,340.400 43.200 C 340.400 42.980,340.400 42.706,340.400 42.591 C 340.400 42.476,321.607 42.341,298.638 42.291 C 275.669 42.241,256.960 42.335,257.062 42.500 M350.800 47.367 C 350.800 47.715,351.085 48.000,351.433 48.000 C 351.782 48.000,351.995 47.786,351.908 47.525 C 351.661 46.783,350.800 46.660,350.800 47.367 M242.128 48.585 C 242.354 49.262,243.600 49.320,243.600 48.654 C 243.600 48.295,243.273 48.074,242.795 48.110 C 242.353 48.144,242.052 48.358,242.128 48.585 M239.569 49.326 C 239.093 50.472,239.375 50.800,240.835 50.800 C 242.273 50.800,242.870 50.338,242.072 49.844 C 241.731 49.634,239.623 49.197,239.569 49.326 M356.900 49.465 C 356.625 49.576,356.400 49.922,356.400 50.233 C 356.400 50.880,357.428 51.003,357.800 50.400 C 357.936 50.180,357.846 50.000,357.600 50.000 C 357.354 50.000,357.264 49.820,357.400 49.600 C 357.667 49.168,357.649 49.163,356.900 49.465 M235.305 52.867 C 235.275 53.270,235.509 53.600,235.825 53.600 C 236.141 53.600,236.400 53.270,236.400 52.867 C 236.400 52.463,236.166 52.133,235.880 52.133 C 235.594 52.133,235.335 52.463,235.305 52.867 M232.133 55.880 C 232.133 56.166,232.463 56.400,232.867 56.400 C 233.270 56.400,233.600 56.141,233.600 55.825 C 233.600 55.509,233.270 55.275,232.867 55.305 C 232.463 55.335,232.133 55.594,232.133 55.880 M229.867 58.267 C 229.406 58.727,229.575 59.200,230.200 59.200 C 230.530 59.200,230.800 58.930,230.800 58.600 C 230.800 57.975,230.327 57.806,229.867 58.267 M222.000 68.471 C 222.000 68.636,222.360 68.965,222.800 69.200 C 223.474 69.561,223.600 69.504,223.600 68.839 C 223.600 68.296,223.350 68.069,222.800 68.110 C 222.360 68.143,222.000 68.306,222.000 68.471 M375.200 70.200 C 375.200 70.530,375.492 70.800,375.849 70.800 C 376.380 70.800,376.408 70.691,376.000 70.200 C 375.726 69.870,375.434 69.600,375.351 69.600 C 375.268 69.600,375.200 69.870,375.200 70.200 M376.400 73.551 C 376.400 74.750,376.564 75.200,377.000 75.200 C 377.394 75.200,377.600 74.805,377.600 74.049 C 377.600 73.416,377.330 72.674,377.000 72.400 C 376.483 71.971,376.400 72.131,376.400 73.551 M262.000 76.992 C 262.000 77.642,263.703 78.231,264.377 77.814 C 265.348 77.214,264.786 76.400,263.400 76.400 C 262.430 76.400,262.000 76.582,262.000 76.992 M333.855 77.000 C 333.987 77.342,334.583 77.600,335.243 77.600 C 336.005 77.600,336.400 77.395,336.400 77.000 C 336.400 76.582,335.979 76.400,335.013 76.400 C 333.944 76.400,333.678 76.538,333.855 77.000 M256.400 81.333 C 256.400 81.627,256.670 81.867,257.000 81.867 C 257.330 81.867,257.600 81.627,257.600 81.333 C 257.600 81.040,257.330 80.800,257.000 80.800 C 256.670 80.800,256.400 81.040,256.400 81.333 M218.110 82.795 C 218.074 83.273,218.295 83.600,218.654 83.600 C 219.003 83.600,219.204 83.318,219.129 82.933 C 218.940 81.958,218.181 81.855,218.110 82.795 M254.800 84.200 C 254.800 84.612,255.062 84.808,255.500 84.724 C 256.343 84.561,256.290 83.852,255.421 83.671 C 255.059 83.595,254.800 83.816,254.800 84.200 M342.283 84.699 C 342.092 85.700,342.498 86.378,343.300 86.394 C 343.465 86.397,343.600 85.770,343.600 85.000 C 343.600 83.294,342.596 83.064,342.283 84.699 M162.600 109.506 C 161.871 110.042,161.988 110.800,162.800 110.800 C 163.333 110.800,163.600 110.533,163.600 110.000 C 163.600 109.166,163.279 109.007,162.600 109.506 M209.700 109.487 C 209.018 109.732,209.065 110.800,209.757 110.800 C 210.361 110.800,210.945 109.727,210.483 109.467 C 210.327 109.379,209.975 109.389,209.700 109.487 M210.800 111.600 C 210.800 112.040,211.053 112.400,211.363 112.400 C 211.728 112.400,211.852 112.120,211.716 111.600 C 211.601 111.160,211.348 110.800,211.153 110.800 C 210.959 110.800,210.800 111.160,210.800 111.600 M212.000 115.813 C 212.000 116.136,212.270 116.400,212.600 116.400 C 212.930 116.400,213.200 116.239,213.200 116.043 C 213.200 115.846,212.930 115.582,212.600 115.455 C 212.235 115.315,212.000 115.455,212.000 115.813 M305.700 122.309 C 304.199 122.553,304.604 123.600,306.200 123.600 C 306.970 123.600,307.600 123.442,307.600 123.249 C 307.600 122.636,306.632 122.158,305.700 122.309 M323.405 135.900 C 323.478 136.285,323.553 136.915,323.569 137.300 C 323.632 138.721,324.800 138.056,324.800 136.600 C 324.800 135.488,324.643 135.200,324.035 135.200 C 323.523 135.200,323.315 135.431,323.405 135.900 M328.194 142.517 C 327.878 143.291,328.124 143.769,328.721 143.542 C 328.926 143.464,328.956 143.040,328.789 142.600 C 328.506 141.854,328.466 141.848,328.194 142.517 M330.800 151.567 C 330.800 153.139,330.941 153.600,331.422 153.600 C 331.913 153.600,332.018 153.207,331.922 151.731 C 331.748 149.063,330.800 148.924,330.800 151.567 M289.476 152.832 C 289.313 153.456,289.409 153.606,289.862 153.432 C 290.194 153.304,290.541 153.200,290.633 153.200 C 290.725 153.200,290.800 152.930,290.800 152.600 C 290.800 151.693,289.724 151.881,289.476 152.832 M210.400 156.957 C 210.400 157.561,211.372 158.095,211.761 157.706 C 212.288 157.179,211.953 156.400,211.200 156.400 C 210.760 156.400,210.400 156.651,210.400 156.957 M342.800 156.824 C 342.800 157.057,342.589 157.117,342.332 156.958 C 342.013 156.761,341.949 156.891,342.132 157.367 C 342.279 157.751,342.400 158.681,342.400 159.433 C 342.400 160.381,342.584 160.800,343.000 160.800 C 343.461 160.800,343.600 160.289,343.600 158.600 C 343.600 157.390,343.420 156.400,343.200 156.400 C 342.980 156.400,342.800 156.591,342.800 156.824 M295.200 157.951 C 295.200 158.144,295.470 158.526,295.800 158.800 C 296.301 159.216,296.400 159.158,296.400 158.449 C 296.400 157.961,296.145 157.600,295.800 157.600 C 295.470 157.600,295.200 157.758,295.200 157.951 M240.800 162.800 C 240.800 163.448,240.533 163.600,239.400 163.600 C 238.267 163.600,238.000 163.752,238.000 164.400 C 238.000 164.933,237.733 165.200,237.200 165.200 C 236.756 165.200,236.400 165.467,236.400 165.800 C 236.400 166.130,236.130 166.400,235.800 166.400 C 235.381 166.400,235.200 166.822,235.200 167.800 C 235.200 168.933,235.048 169.200,234.400 169.200 C 233.634 169.200,233.600 169.467,233.600 175.553 C 233.600 181.570,233.558 181.918,232.800 182.116 C 232.021 182.320,232.000 182.662,232.000 195.000 C 232.000 207.338,232.021 207.680,232.800 207.884 C 233.462 208.057,233.600 208.430,233.600 210.047 C 233.600 211.733,233.709 212.000,234.400 212.000 C 234.933 212.000,235.200 212.267,235.200 212.800 C 235.200 213.244,235.467 213.600,235.800 213.600 C 236.130 213.600,236.400 213.870,236.400 214.200 C 236.400 214.533,236.756 214.800,237.200 214.800 C 237.733 214.800,238.000 215.067,238.000 215.600 C 238.000 216.248,238.267 216.400,239.400 216.400 C 240.533 216.400,240.800 216.552,240.800 217.200 C 240.800 217.848,241.067 218.000,242.200 218.000 L 243.600 218.000 243.600 233.553 C 243.600 248.770,243.583 249.111,242.800 249.316 C 242.043 249.514,242.000 249.862,242.000 255.763 C 242.000 261.733,242.034 262.000,242.800 262.000 C 243.582 262.000,243.600 262.267,243.600 273.600 C 243.600 284.933,243.582 285.200,242.800 285.200 C 242.051 285.200,242.000 285.467,242.000 289.400 C 242.000 292.867,241.895 293.600,241.400 293.600 C 241.067 293.600,240.800 293.956,240.800 294.400 C 240.800 294.933,240.533 295.200,240.000 295.200 C 239.556 295.200,239.200 295.467,239.200 295.800 C 239.200 296.130,238.930 296.400,238.600 296.400 C 238.267 296.400,238.000 296.756,238.000 297.200 C 238.000 297.733,237.733 298.000,237.200 298.000 C 236.756 298.000,236.400 298.267,236.400 298.600 C 236.400 298.930,236.130 299.200,235.800 299.200 C 235.467 299.200,235.200 299.556,235.200 300.000 C 235.200 300.790,234.933 300.800,213.600 300.800 L 192.000 300.800 192.000 319.237 C 192.000 337.338,192.015 337.679,192.800 337.884 C 193.535 338.076,193.600 338.430,193.600 342.247 C 193.600 346.133,193.651 346.400,194.400 346.400 C 195.141 346.400,195.200 346.667,195.200 350.000 C 195.200 352.933,195.311 353.600,195.800 353.600 C 196.219 353.600,196.400 354.022,196.400 355.000 C 196.400 356.133,196.552 356.400,197.200 356.400 C 197.733 356.400,198.000 356.667,198.000 357.200 C 198.000 357.644,198.267 358.000,198.600 358.000 C 199.019 358.000,199.200 358.422,199.200 359.400 C 199.200 360.533,199.352 360.800,200.000 360.800 C 200.648 360.800,200.800 361.067,200.800 362.200 C 200.800 363.178,200.981 363.600,201.400 363.600 C 201.730 363.600,202.000 363.870,202.000 364.200 C 202.000 364.533,202.356 364.800,202.800 364.800 C 203.467 364.800,203.600 365.067,203.600 366.400 C 203.600 367.733,203.733 368.000,204.400 368.000 C 204.844 368.000,205.200 368.267,205.200 368.600 C 205.200 368.930,205.470 369.200,205.800 369.200 C 206.133 369.200,206.400 369.556,206.400 370.000 C 206.400 370.533,206.667 370.800,207.200 370.800 C 207.644 370.800,208.000 371.067,208.000 371.400 C 208.000 371.730,208.270 372.000,208.600 372.000 C 208.933 372.000,209.200 372.356,209.200 372.800 C 209.200 373.448,209.467 373.600,210.600 373.600 C 211.578 373.600,212.000 373.781,212.000 374.200 C 212.000 374.533,212.356 374.800,212.800 374.800 C 213.333 374.800,213.600 375.067,213.600 375.600 C 213.600 376.133,213.867 376.400,214.400 376.400 C 214.933 376.400,215.200 376.667,215.200 377.200 C 215.200 377.893,215.467 378.000,217.200 378.000 C 218.711 378.000,219.200 378.147,219.200 378.600 C 219.200 379.015,219.617 379.200,220.553 379.200 C 221.570 379.200,221.959 379.399,222.116 380.000 C 222.291 380.668,222.662 380.800,224.363 380.800 C 225.907 380.800,226.400 380.945,226.400 381.400 C 226.400 381.876,226.978 382.000,229.200 382.000 C 231.733 382.000,232.000 382.076,232.000 382.800 C 232.000 383.595,232.267 383.600,272.800 383.600 C 313.333 383.600,313.600 383.595,313.600 382.800 C 313.600 382.097,313.867 382.000,315.800 382.000 C 317.489 382.000,318.000 381.861,318.000 381.400 C 318.000 380.947,318.489 380.800,320.000 380.800 C 321.733 380.800,322.000 380.693,322.000 380.000 C 322.000 379.352,322.267 379.200,323.400 379.200 C 324.378 379.200,324.800 379.019,324.800 378.600 C 324.800 378.139,325.311 378.000,327.000 378.000 C 328.933 378.000,329.200 377.903,329.200 377.200 C 329.200 376.552,329.467 376.400,330.600 376.400 C 331.933 376.400,332.000 376.333,332.000 375.000 C 332.000 373.867,332.152 373.600,332.800 373.600 C 333.333 373.600,333.600 373.333,333.600 372.800 C 333.600 372.152,333.867 372.000,335.000 372.000 C 335.925 372.000,336.400 371.812,336.400 371.447 C 336.400 371.142,336.760 370.799,337.200 370.684 C 337.783 370.532,338.000 370.138,338.000 369.237 C 338.000 368.404,338.196 368.000,338.600 368.000 C 338.933 368.000,339.200 367.644,339.200 367.200 C 339.200 366.667,339.467 366.400,340.000 366.400 C 340.533 366.400,340.800 366.133,340.800 365.600 C 340.800 365.156,341.067 364.800,341.400 364.800 C 341.730 364.800,342.000 364.530,342.000 364.200 C 342.000 363.867,342.356 363.600,342.800 363.600 C 343.333 363.600,343.600 363.333,343.600 362.800 C 343.600 362.356,343.867 362.000,344.200 362.000 C 344.653 362.000,344.800 361.511,344.800 360.000 C 344.800 358.267,344.907 358.000,345.600 358.000 C 346.267 358.000,346.400 357.733,346.400 356.400 C 346.400 355.067,346.533 354.800,347.200 354.800 C 347.848 354.800,348.000 354.533,348.000 353.400 C 348.000 352.422,348.181 352.000,348.600 352.000 C 349.019 352.000,349.200 351.578,349.200 350.600 C 349.200 349.467,349.352 349.200,350.000 349.200 C 350.703 349.200,350.800 348.933,350.800 347.000 C 350.800 345.311,350.939 344.800,351.400 344.800 C 351.930 344.800,352.000 339.867,352.000 302.800 C 352.000 265.733,351.930 260.800,351.400 260.800 C 350.924 260.800,350.800 260.222,350.800 258.000 C 350.800 255.467,350.724 255.200,350.000 255.200 C 349.333 255.200,349.200 254.933,349.200 253.600 C 349.200 252.444,349.033 252.000,348.600 252.000 C 348.196 252.000,348.000 251.596,348.000 250.763 C 348.000 249.862,347.783 249.468,347.200 249.316 C 346.760 249.201,346.400 248.858,346.400 248.553 C 346.400 248.249,346.040 248.000,345.600 248.000 C 344.871 248.000,344.800 247.733,344.800 245.000 L 344.800 242.000 343.400 242.000 C 342.067 242.000,342.000 241.933,342.000 240.600 C 342.000 239.622,341.819 239.200,341.400 239.200 C 341.070 239.200,340.800 238.930,340.800 238.600 C 340.800 238.267,340.444 238.000,340.000 238.000 C 339.467 238.000,339.200 237.733,339.200 237.200 C 339.200 236.756,338.933 236.400,338.600 236.400 C 338.270 236.400,338.000 236.130,338.000 235.800 C 338.000 235.467,337.644 235.200,337.200 235.200 C 336.667 235.200,336.400 234.933,336.400 234.400 C 336.400 233.867,336.133 233.600,335.600 233.600 C 335.067 233.600,334.800 233.333,334.800 232.800 C 334.800 232.356,334.533 232.000,334.200 232.000 C 333.870 232.000,333.600 231.730,333.600 231.400 C 333.600 231.067,333.244 230.800,332.800 230.800 C 332.267 230.800,332.000 230.533,332.000 230.000 C 332.000 229.352,331.733 229.200,330.600 229.200 C 329.622 229.200,329.200 229.019,329.200 228.600 C 329.200 228.181,328.778 228.000,327.800 228.000 C 326.667 228.000,326.400 227.848,326.400 227.200 C 326.400 226.667,326.133 226.400,325.600 226.400 C 325.156 226.400,324.800 226.133,324.800 225.800 C 324.800 225.347,324.311 225.200,322.800 225.200 C 321.067 225.200,320.800 225.093,320.800 224.400 C 320.800 223.758,320.533 223.600,319.447 223.600 C 318.427 223.600,318.041 223.401,317.883 222.796 C 317.676 222.003,317.411 221.993,299.936 222.096 L 282.200 222.200 282.200 240.000 L 282.200 257.800 295.700 257.905 C 307.332 257.996,309.200 258.093,309.200 258.605 C 309.200 259.018,309.628 259.200,310.600 259.200 C 311.733 259.200,312.000 259.352,312.000 260.000 C 312.000 260.533,312.267 260.800,312.800 260.800 C 313.244 260.800,313.600 261.067,313.600 261.400 C 313.600 261.733,313.956 262.000,314.400 262.000 C 315.048 262.000,315.200 262.267,315.200 263.400 C 315.200 264.378,315.381 264.800,315.800 264.800 C 316.233 264.800,316.400 265.244,316.400 266.400 C 316.400 267.733,316.533 268.000,317.200 268.000 C 317.994 268.000,318.000 268.267,318.000 302.200 C 318.000 336.133,317.994 336.400,317.200 336.400 C 316.497 336.400,316.400 336.667,316.400 338.600 C 316.400 340.289,316.261 340.800,315.800 340.800 C 315.470 340.800,315.200 341.070,315.200 341.400 C 315.200 341.733,314.844 342.000,314.400 342.000 C 313.867 342.000,313.600 342.267,313.600 342.800 C 313.600 343.333,313.333 343.600,312.800 343.600 C 312.267 343.600,312.000 343.867,312.000 344.400 C 312.000 344.844,311.733 345.200,311.400 345.200 C 311.070 345.200,310.800 345.470,310.800 345.800 C 310.800 346.219,310.378 346.400,309.400 346.400 C 308.267 346.400,308.000 346.552,308.000 347.200 C 308.000 347.994,307.733 348.000,272.200 348.000 C 236.667 348.000,236.400 347.994,236.400 347.200 C 236.400 346.552,236.133 346.400,235.000 346.400 C 234.022 346.400,233.600 346.219,233.600 345.800 C 233.600 345.467,233.244 345.200,232.800 345.200 C 232.267 345.200,232.000 344.933,232.000 344.400 C 232.000 343.956,231.733 343.600,231.400 343.600 C 231.070 343.600,230.800 343.313,230.800 342.963 C 230.800 342.612,230.440 342.231,230.000 342.116 C 229.560 342.001,229.200 341.658,229.200 341.353 C 229.200 341.049,228.930 340.800,228.600 340.800 C 228.267 340.800,228.000 340.444,228.000 340.000 C 228.000 339.467,227.733 339.200,227.200 339.200 C 226.756 339.200,226.400 338.933,226.400 338.600 C 226.400 338.124,226.978 338.000,229.200 338.000 C 231.733 338.000,232.000 337.924,232.000 337.200 C 232.000 336.443,232.267 336.400,237.000 336.400 C 241.733 336.400,242.000 336.357,242.000 335.600 C 242.000 334.952,242.267 334.800,243.400 334.800 C 244.378 334.800,244.800 334.619,244.800 334.200 C 244.800 333.739,245.311 333.600,247.000 333.600 C 248.933 333.600,249.200 333.503,249.200 332.800 C 249.200 332.152,249.467 332.000,250.600 332.000 C 251.578 332.000,252.000 331.819,252.000 331.400 C 252.000 330.981,252.422 330.800,253.400 330.800 C 254.533 330.800,254.800 330.648,254.800 330.000 C 254.800 329.467,255.067 329.200,255.600 329.200 C 256.040 329.200,256.400 328.951,256.400 328.647 C 256.400 328.342,256.760 327.999,257.200 327.884 C 257.640 327.769,258.000 327.388,258.000 327.037 C 258.000 326.687,258.270 326.400,258.600 326.400 C 258.933 326.400,259.200 326.044,259.200 325.600 C 259.200 324.952,259.467 324.800,260.600 324.800 C 261.578 324.800,262.000 324.619,262.000 324.200 C 262.000 323.867,262.356 323.600,262.800 323.600 C 263.333 323.600,263.600 323.333,263.600 322.800 C 263.600 322.356,263.867 322.000,264.200 322.000 C 264.619 322.000,264.800 321.578,264.800 320.600 C 264.800 319.467,264.952 319.200,265.600 319.200 C 266.040 319.200,266.400 318.951,266.400 318.647 C 266.400 318.342,266.760 317.999,267.200 317.884 C 267.640 317.769,268.000 317.388,268.000 317.037 C 268.000 316.687,268.270 316.400,268.600 316.400 C 269.019 316.400,269.200 315.978,269.200 315.000 C 269.200 313.867,269.352 313.600,270.000 313.600 C 270.533 313.600,270.800 313.333,270.800 312.800 C 270.800 312.356,271.067 312.000,271.400 312.000 C 271.876 312.000,272.000 311.422,272.000 309.200 C 272.000 306.667,272.076 306.400,272.800 306.400 C 273.448 306.400,273.600 306.133,273.600 305.000 C 273.600 304.022,273.781 303.600,274.200 303.600 C 274.676 303.600,274.800 303.022,274.800 300.800 C 274.800 298.267,274.876 298.000,275.600 298.000 C 276.395 298.000,276.400 297.733,276.400 258.000 L 276.400 218.000 277.800 218.000 C 278.933 218.000,279.200 217.848,279.200 217.200 C 279.200 216.552,279.467 216.400,280.600 216.400 C 281.733 216.400,282.000 216.248,282.000 215.600 C 282.000 215.067,282.267 214.800,282.800 214.800 C 283.244 214.800,283.600 214.533,283.600 214.200 C 283.600 213.870,283.870 213.600,284.200 213.600 C 284.619 213.600,284.800 213.178,284.800 212.200 C 284.800 211.067,284.952 210.800,285.600 210.800 C 286.390 210.800,286.400 210.533,286.400 190.000 C 286.400 169.467,286.390 169.200,285.600 169.200 C 284.952 169.200,284.800 168.933,284.800 167.800 C 284.800 166.822,284.619 166.400,284.200 166.400 C 283.870 166.400,283.600 166.130,283.600 165.800 C 283.600 165.467,283.244 165.200,282.800 165.200 C 282.267 165.200,282.000 164.933,282.000 164.400 C 282.000 163.709,281.733 163.600,280.047 163.600 C 278.430 163.600,278.057 163.462,277.884 162.800 C 277.679 162.015,277.338 162.000,259.237 162.000 C 241.067 162.000,240.800 162.012,240.800 162.800 M376.400 170.029 C 376.400 171.742,376.509 172.038,377.095 171.925 C 377.494 171.848,377.776 171.451,377.756 170.995 C 377.640 168.302,377.563 168.000,377.000 168.000 C 376.546 168.000,376.400 168.492,376.400 170.029 M373.600 176.957 C 373.600 177.635,374.682 178.115,375.011 177.583 C 375.141 177.372,375.136 177.020,375.000 176.800 C 374.630 176.202,373.600 176.318,373.600 176.957 M370.800 181.449 C 370.800 181.980,370.909 182.008,371.400 181.600 C 371.730 181.326,372.000 181.034,372.000 180.951 C 372.000 180.868,371.730 180.800,371.400 180.800 C 371.070 180.800,370.800 181.092,370.800 181.449 M360.800 191.449 C 360.800 191.980,360.909 192.008,361.400 191.600 C 361.730 191.326,362.000 191.034,362.000 190.951 C 362.000 190.868,361.730 190.800,361.400 190.800 C 361.070 190.800,360.800 191.092,360.800 191.449 M356.400 194.115 C 356.400 194.398,356.750 194.656,357.177 194.688 C 357.700 194.728,357.882 194.559,357.734 194.173 C 357.461 193.460,356.400 193.414,356.400 194.115 M57.300 195.465 C 55.374 196.242,58.730 196.400,77.187 196.400 C 95.145 196.400,97.547 196.328,97.345 195.800 C 97.118 195.209,58.729 194.888,57.300 195.465 M350.800 197.000 C 350.800 197.330,351.040 197.600,351.333 197.600 C 351.627 197.600,351.867 197.330,351.867 197.000 C 351.867 196.670,351.627 196.400,351.333 196.400 C 351.040 196.400,350.800 196.670,350.800 197.000 M38.110 202.795 C 38.074 203.273,38.295 203.600,38.654 203.600 C 39.003 203.600,39.204 203.318,39.129 202.933 C 38.940 201.958,38.181 201.855,38.110 202.795 M35.467 204.267 C 35.006 204.727,35.175 205.200,35.800 205.200 C 36.130 205.200,36.400 204.930,36.400 204.600 C 36.400 203.975,35.927 203.806,35.467 204.267 M24.267 215.467 C 23.806 215.927,23.975 216.400,24.600 216.400 C 24.930 216.400,25.200 216.130,25.200 215.800 C 25.200 215.175,24.727 215.006,24.267 215.467 M22.800 216.824 C 22.800 217.057,22.589 217.117,22.332 216.958 C 22.013 216.761,21.949 216.891,22.132 217.367 C 22.279 217.751,22.400 218.321,22.400 218.633 C 22.400 218.945,22.670 219.200,23.000 219.200 C 23.419 219.200,23.600 218.778,23.600 217.800 C 23.600 217.030,23.420 216.400,23.200 216.400 C 22.980 216.400,22.800 216.591,22.800 216.824 M16.666 229.933 C 16.740 230.226,16.800 230.541,16.800 230.633 C 16.800 230.725,17.070 230.800,17.400 230.800 C 17.730 230.800,18.000 230.511,18.000 230.157 C 18.000 229.763,17.778 229.600,17.426 229.735 C 17.110 229.856,16.780 229.830,16.691 229.678 C 16.603 229.525,16.592 229.640,16.666 229.933 M62.400 234.967 C 62.400 238.139,62.306 240.981,62.190 241.282 C 62.055 241.633,62.269 241.829,62.790 241.829 C 63.569 241.829,63.600 241.588,63.600 235.514 C 63.600 230.168,63.508 229.200,63.000 229.200 C 62.494 229.200,62.400 230.107,62.400 234.967 M57.733 231.400 C 57.733 231.730,57.861 232.000,58.018 232.000 C 58.174 232.000,58.526 231.730,58.800 231.400 C 59.214 230.901,59.166 230.800,58.516 230.800 C 58.085 230.800,57.733 231.070,57.733 231.400 M98.000 235.800 C 98.000 236.130,98.292 236.400,98.649 236.400 C 99.180 236.400,99.208 236.291,98.800 235.800 C 98.526 235.470,98.234 235.200,98.151 235.200 C 98.068 235.200,98.000 235.470,98.000 235.800 M189.200 235.753 C 189.200 236.601,189.375 236.607,209.083 236.488 C 225.155 236.391,227.537 236.300,227.340 235.788 C 227.011 234.931,189.200 234.896,189.200 235.753 M52.000 237.000 C 52.000 237.330,52.251 237.600,52.557 237.600 C 52.864 237.600,53.218 237.330,53.345 237.000 C 53.501 236.592,53.323 236.400,52.787 236.400 C 52.354 236.400,52.000 236.670,52.000 237.000 M230.800 237.367 C 230.800 237.715,231.085 238.000,231.433 238.000 C 232.140 238.000,232.017 237.139,231.275 236.892 C 231.014 236.805,230.800 237.018,230.800 237.367 M103.310 242.800 C 103.269 243.346,103.496 243.600,104.025 243.600 C 104.533 243.600,104.800 243.325,104.800 242.800 C 104.800 242.298,104.533 242.000,104.085 242.000 C 103.657 242.000,103.346 242.321,103.310 242.800 M182.775 242.597 C 182.010 243.362,182.223 246.400,183.042 246.400 C 183.452 246.400,183.600 245.815,183.600 244.200 C 183.600 241.750,183.607 241.764,182.775 242.597 M235.067 242.267 C 234.516 242.817,234.829 243.600,235.600 243.600 C 236.481 243.600,236.509 243.550,236.157 242.633 C 235.900 241.961,235.505 241.829,235.067 242.267 M69.412 257.980 C 69.283 258.189,69.543 258.555,69.989 258.794 C 70.680 259.164,70.800 259.108,70.800 258.414 C 70.800 257.587,69.841 257.287,69.412 257.980 M82.678 270.680 C 81.817 270.903,81.989 271.746,82.933 271.929 C 83.383 272.017,83.600 271.789,83.600 271.229 C 83.600 270.773,83.555 270.421,83.500 270.446 C 83.445 270.472,83.075 270.577,82.678 270.680 M50.800 290.600 C 50.800 306.867,50.875 309.200,51.400 309.200 C 51.925 309.200,52.000 306.867,52.000 290.600 C 52.000 274.333,51.925 272.000,51.400 272.000 C 50.875 272.000,50.800 274.333,50.800 290.600 M95.200 276.757 C 95.200 276.954,95.485 277.224,95.833 277.357 C 96.956 277.788,98.000 277.616,98.000 277.000 C 98.000 276.581,97.578 276.400,96.600 276.400 C 95.830 276.400,95.200 276.561,95.200 276.757 M182.250 282.050 C 181.820 284.200,181.940 284.800,182.800 284.800 C 183.493 284.800,183.600 284.533,183.600 282.800 C 183.600 280.490,182.666 279.971,182.250 282.050 M176.400 301.629 C 176.400 316.614,176.457 318.047,177.053 317.929 C 177.702 317.801,177.967 287.421,177.333 285.769 C 176.578 283.801,176.400 286.821,176.400 301.629 M230.800 288.649 C 230.800 289.180,230.909 289.208,231.400 288.800 C 231.730 288.526,232.000 288.234,232.000 288.151 C 232.000 288.068,231.730 288.000,231.400 288.000 C 231.070 288.000,230.800 288.292,230.800 288.649 M189.470 289.761 C 189.352 290.069,189.350 290.417,189.467 290.533 C 189.834 290.901,190.800 290.338,190.800 289.757 C 190.800 289.031,189.749 289.034,189.470 289.761 M54.800 315.800 C 54.800 316.130,55.070 316.400,55.400 316.400 C 55.730 316.400,56.000 316.130,56.000 315.800 C 56.000 315.470,55.730 315.200,55.400 315.200 C 55.070 315.200,54.800 315.470,54.800 315.800 M138.254 315.802 C 138.115 316.165,138.256 316.400,138.613 316.400 C 139.260 316.400,139.407 315.775,138.842 315.426 C 138.645 315.304,138.381 315.474,138.254 315.802 M56.643 316.691 C 56.509 316.824,56.400 317.173,56.400 317.467 C 56.400 318.030,57.426 318.210,57.734 317.700 C 57.971 317.309,56.960 316.374,56.643 316.691 M135.657 318.363 C 135.255 318.613,135.236 318.775,135.584 318.990 C 136.133 319.329,136.545 319.029,136.342 318.438 C 136.258 318.196,135.976 318.165,135.657 318.363 M130.003 321.194 C 129.533 321.488,129.510 321.670,129.897 322.057 C 130.479 322.639,130.925 322.312,130.735 321.442 C 130.639 321.000,130.428 320.928,130.003 321.194 M18.278 323.856 C 17.958 324.175,18.319 324.800,18.824 324.800 C 19.031 324.800,19.200 324.530,19.200 324.200 C 19.200 323.581,18.728 323.405,18.278 323.856 M170.800 331.449 C 170.800 331.980,170.909 332.008,171.400 331.600 C 171.730 331.326,172.000 331.034,172.000 330.951 C 172.000 330.868,171.730 330.800,171.400 330.800 C 171.070 330.800,170.800 331.092,170.800 331.449 M22.172 332.445 C 22.021 332.689,22.146 333.047,22.449 333.239 C 23.305 333.781,23.600 333.668,23.600 332.800 C 23.600 331.946,22.630 331.705,22.172 332.445 M26.666 336.700 C 26.429 337.091,27.440 338.026,27.757 337.709 C 27.891 337.576,28.000 337.227,28.000 336.933 C 28.000 336.370,26.974 336.190,26.666 336.700 M166.400 337.033 C 166.400 337.740,167.261 337.617,167.508 336.875 C 167.595 336.614,167.382 336.400,167.033 336.400 C 166.685 336.400,166.400 336.685,166.400 337.033 M163.600 339.733 C 163.600 340.477,163.983 340.781,164.614 340.539 C 165.282 340.283,164.913 339.200,164.157 339.200 C 163.851 339.200,163.600 339.440,163.600 339.733 M29.692 341.275 C 29.939 342.017,30.800 342.140,30.800 341.433 C 30.800 341.085,30.515 340.800,30.167 340.800 C 29.818 340.800,29.605 341.014,29.692 341.275 M33.783 344.027 C 33.638 344.262,33.897 344.553,34.360 344.674 C 34.822 344.794,35.200 345.142,35.200 345.447 C 35.200 345.751,35.470 346.000,35.800 346.000 C 36.130 346.000,36.400 345.730,36.400 345.400 C 36.400 345.070,36.130 344.800,35.800 344.800 C 35.470 344.800,35.200 344.530,35.200 344.200 C 35.200 343.513,34.178 343.388,33.783 344.027 M157.864 344.178 C 157.732 344.520,157.349 344.800,157.013 344.800 C 156.670 344.800,156.400 345.147,156.400 345.587 C 156.400 346.123,156.592 346.301,157.000 346.145 C 157.330 346.018,157.600 345.675,157.600 345.381 C 157.600 345.054,158.179 344.800,159.100 344.724 C 160.916 344.574,161.090 343.848,159.351 343.678 C 158.508 343.596,158.025 343.759,157.864 344.178 M42.000 349.733 C 42.000 350.486,42.385 350.781,43.039 350.530 C 43.890 350.203,43.710 349.200,42.800 349.200 C 42.360 349.200,42.000 349.440,42.000 349.733 M45.200 351.157 C 45.200 351.666,46.244 352.000,47.833 352.000 C 48.781 352.000,49.200 351.816,49.200 351.400 C 49.200 350.947,48.711 350.800,47.200 350.800 C 46.100 350.800,45.200 350.961,45.200 351.157 M144.800 351.400 C 144.800 351.842,145.261 352.000,146.551 352.000 C 147.620 352.000,148.496 351.766,148.800 351.400 C 149.233 350.879,149.003 350.800,147.049 350.800 C 145.317 350.800,144.800 350.938,144.800 351.400 " stroke="none" fill="#000000" fill-rule="evenodd"></path></g></svg>